<svg id="Layer_1" data-name="Layer 1" xmlns="http://www.w3.org/2000/svg" viewBox="0 0 204.72 164.32"><defs><style>.cls-1{fill:#e75152;}</style></defs><path class="cls-1" d="M218.83,125.62,189.47,93.34a15,15,0,0,0-21.15,0,14.68,14.68,0,0,0-3.78,6.46,15,15,0,0,0-23.44,7.8A15,15,0,0,0,121.46,109a14.79,14.79,0,0,0-3.75,6.3l-13.84-13.84a15,15,0,0,0-21.14,21.15l53.17,53.17-31.53,5a17.49,17.49,0,0,0-15,17.24,11.72,11.72,0,0,0,11.71,11.71h73.64a42.7,42.7,0,0,0,30.38-12.58l12.28-12.29a42.88,42.88,0,0,0,1.4-59.2Zm-6.92,53.68-12.28,12.29a34.92,34.92,0,0,1-24.86,10.29H101.13a3.91,3.91,0,0,1-3.9-3.9,9.66,9.66,0,0,1,8.3-9.52l39.17-6.15a3.9,3.9,0,0,0,2.15-6.62l-58.6-58.6A7.14,7.14,0,0,1,98.35,107l39.08,39.07a3.9,3.9,0,1,0,5.51-5.53l-16-15.95a7.14,7.14,0,0,1,10.1-10.1l16,16a3.9,3.9,0,1,0,5.51-5.53l-8.14-8.15a7.13,7.13,0,0,1,10.09-10.09l8.19,8.18h0a3.91,3.91,0,0,0,5.45-5.6l-.34-.34a7.14,7.14,0,0,1,10-10.23l29.24,32.14a35.1,35.1,0,0,1-1.15,48.43Z" transform="translate(-25.28 -45.37)"/><path class="cls-1" d="M62.64,115.26a3.59,3.59,0,1,0,7.18,0A25.2,25.2,0,0,1,94.93,89.91a3.56,3.56,0,0,0,2.53-1.07,3.59,3.59,0,0,0-2.56-6.12,32.38,32.38,0,0,0-32.26,32.54ZM43.77,121a3.59,3.59,0,0,0,7.14-.82A44.47,44.47,0,0,1,99.39,70.91a3.59,3.59,0,0,0,.69-7.15A51.6,51.6,0,0,0,43.77,121Zm59.4-75.19a69.75,69.75,0,0,0-77.33,78A3.59,3.59,0,0,0,33,123a62.56,62.56,0,0,1,69.37-70,3.59,3.59,0,0,0,.83-7.14Z" transform="translate(-25.28 -45.37)"/></svg>